<?xml version="1.0" encoding="utf-8"?>
<!-- Generator: Adobe Illustrator 19.1.0, SVG Export Plug-In . SVG Version: 6.00 Build 0)  -->
<svg version="1.1" id="Layer_1" xmlns="http://www.w3.org/2000/svg" xmlns:xlink="http://www.w3.org/1999/xlink" x="0px" y="0px"
	 viewBox="0 0 466.8 465.6" style="enable-background:new 0 0 466.8 465.6;" xml:space="preserve">
<style type="text/css">
	.st0{fill-rule:evenodd;clip-rule:evenodd;fill:none;}
</style>
<path class="st0" d="M29.8,301.9c0,0-3.8,0.5-3.1,4.8c0.6,4.3,3,13.4,5.5,14.6c2.5,1.2,6.7,2.9,25.7,6c1.8,3.8,6.5,10.8,6.5,10.8
	v4.6c0,0,15.7,5.5,30.2,8.2s169.7,35,169.7,35l50.9,10.6c0,0,30.8,5.7,41.8,0.5c11-5.2,21.3-10.3,28.1-14.4c1.3-0.7,7.7-1.2,7.7-1.2
	s8.5-3.6,13.4-6.7c1.6-4.1,5.3-16.6,5.3-16.6s10.6-3.9,13.4-6c0.7-1.3,0.5-1.7,0.5-1.7l3.1-2.4c0,0,1.2-2.1,1.9-7.7
	c1.8-1.1,5.8-3.4,5.8-3.4l-2.6-24.2c0,0-1.7-2.2-5.8-2.2c-4,0.1-5.5,0.7-5.5,0.7l-3.4-0.5l1-1.4c0,0-2.8-11.1-13.9-47.8
	c0.2-1.3,0.5-3.8,0.5-3.8l4.3,8.4c0,0,3.2,1.7,5-1.7c-0.6-1.6-5.5-7.7-5.5-7.7s-0.5,0-4.3-5.8c-0.9-3.9-4.2-22.4-13.4-22.8
	c-0.7-0.7-1.4-1.4-1.4-1.4s-0.4-4.3-4.3-8.4c-4.5-1.1-5.8-1-5.8-1s-0.9-4.8,0.7-6c0.1-1.2,0-2.9,0-2.9l2.4-1c0,0,0.3-2.7,0-4.8
	c-0.3-1.5-0.3-2.2,0.5-2.9c-0.1-2.2-0.4-12.5-1.7-16.6c-0.1-1.8,0.2-6-0.7-7.2s-1.9-1.9-2.6-2.2c-0.7-1.1-4.3-8.8-10.8-11.3
	c-2.9-1.6-6.6-4-11.3-2.4c-1.1,0.3-1,0.2-1,0.2l-2.4-0.5c-0.6,0-0.2-1.9-0.2-1.9s0.8-16.4,0.2-16.6c-0.3-1,0.2-1.2,0.2-1.2l8.4-29.8
	c0,0,0.8,0,1.2-1.2s2.4-8.9,2.4-8.9s0.6-1.2-0.7-1.9c0.2-2.3,4.1-16.6,4.1-16.6s6.8-5.2,5.3-10.3c-0.5-1-4.2-5.3-10.8-4.3
	c-1.9,0.7-5.1,1.7-5,5.5c0.1,3.8-0.4,4.8,1,6.5c-0.1,1.9-3.1,17.5-3.1,17.5s-1.8,0.5-1.4,3.1c-0.5,0.8-1,1-0.7,2.9
	c-0.2,0.7-0.7,1.5-0.5,2.9c-0.5,1.2-1.3,2.7-0.7,2.9s0.7,0,0.7,0s-5.9,29.1-5.3,31c-0.5,0.5-2.8,1.1-7.4,20.2
	c0.2,1.4,1.4,3.4,1.2,4.3c-0.6,0.4-6.3,2.8-6.5,6.5c-0.1,3.7,1.3,28.2,1.9,29.3c-0.1,0.9-1.2,1-1.2,1s-9.3-5.6-24-1.9
	c-0.8-0.6-3.2-3.8-6-5c-0.3-2.1-0.6-12.7-2.6-16.1c-0.1-1.8-0.1-3.7-2.4-5.5c-1.8-2.7-8.3-13.6-25.4-12.5c0-2.9-0.6-7.5,1.2-15.6
	c-0.2-1.5,0-1.7,0-1.7l8.6-28.3c0,0,0.9,0.3,1.2-1.2c0.2-0.6,0.5-2.3,0.7-2.9c0.3-0.5,0.4-1.6,0.7-1.9c0.4-0.4,0.5-1.9,0.5-1.9
	s1.5-2,0-2.9c0.2-1.6,4.3-15.6,4.3-15.6s8.4-7,3.8-11.3c-4.6-4.3-10.3-1.7-10.3-1.7s-3.4,0.5-2.9,6c0.1,1.6,0.3,3.1,1,4.3
	c-0.3,1.6-3.8,16.3-3.8,16.3s-1.6,0.6-1.2,2.2c-0.3,0.9-0.8,1.5-0.5,2.4c-0.4,0.7-1.1,1.9-0.7,3.1c-0.2,0.3-1,1.6-0.7,2.9
	c0.8,0,0.7,0,0.7,0l-6.7,28.1v1.2c0,0-1.4-1.3-7.9,18.5c-0.2,0.7-0.2,0.7-0.2,0.7l1.4,3.4c0,0-4.2,3.7-5.3,6.7
	c0,3.2,0.7,15.4,0.7,15.4s-13.9-2-22.1-2.4c-0.2-1.2-3.2-14.6-12-19.9c-0.9-0.6-7.3-4.8-16.6-4.1c-0.2-1.9-0.7-3.3,1.2-14.4
	c0.1-1.3,0-1.2,0-1.2l9.6-26.2c0,0,0.9,0.1,1.4-2.2c0.4-0.6,0.7-1.7,0.7-2.2c0.4-0.1,0.6-1.1,0.7-1.7c0.1-0.6,0.7-1.2,0.7-1.7
	c0.1-0.5,1.1-2.1,0-3.1c0.3-1.2,4.5-13.7,5-14.4c0.6-0.7,9.9-7.5,1.4-11.5c-1.5-0.7-8.2-3.3-10.1,2.6c0,1-0.1,4.5,0.5,6.5
	c0,1.5-3.8,14.9-3.8,14.9s-1.7,0-1.4,1.9c-0.4,0.9-0.9,1.3-1,1.9c0,0.6-1,2.1-0.7,2.6c0.2,0.5-0.7,1.6-0.7,2.2c0,0.6-0.3,1,0.2,1.4
	c0,1.4-7.2,27.1-7.2,27.1s-1.5-1.9-8.6,17.8c1.4,2.8,2.2,3.8,2.2,3.8l-1.4,1.2c0,0-4.8,2.6-4.8,4.3c0,1.7,0.5,12.5,0.5,12.5
	s-13.2-0.4-16.6-0.2c-0.4-1.7-3.5-18.7-16.1-22.1c-1.4-0.6-5-1.9-12.5-1.7c-0.2-1-0.7-5.4,1.2-13.7c0.3-0.8,0.5-1.9,0.5-1.9
	l9.8-24.7c0,0,0.6-0.4,1-1.4c0.3-1,2.9-7.2,2.9-7.2s-0.4-1.1-0.7-1.4c0.6-0.8,5.5-13.2,5.5-13.2s9.6-7.6,1.7-11.5
	c-2.3-0.9-9.2-2.2-9.6,3.6c0,1.3,0,3.5,0.5,5c-0.1,1.2-4.1,13.9-4.1,13.9s-1.7,0.7-1.7,1.7c-0.3,0.4-0.7,1.5-0.5,1.9
	c-0.2,0.5-0.5,1.2-0.2,1.7c-0.6,0.5-1.2,1.2-1,1.9c-0.3,0.5-0.9,2-0.7,2.9c-0.1,1.8-7.4,24.7-7.4,24.7s-0.6,1.4-0.7,1.7
	c-0.1,0.3-7.9,15.6-7.9,15.6s1.7,2.8,2.2,3.8c-0.4,0.8-1.7,1.7-1.7,1.7s-3.9,2-3.8,4.1c0.1,2.1,0.5,17,0.5,17s-32,2.2-39.4,4.6
	c-7.3,2.3-19.7,6.7-27.1,18c-0.4,1-1.3,5.2-2.2,6c-0.9,0.8-0.2,2.4-0.2,2.4s-17,1.7-25.7,23c-0.9,2-10,21.4-11.5,31.7
	C27.7,280,26.2,288,29.8,301.9z"/>
</svg>
